# xmcd
#
# Track frame offsets:
#	150
#	10515
#	32497
#	51575
#	72937
#	93840
#	115457
#	135285
#	158165
#	181015
#	199450
#	231450
#	253507
#	285962
#
# Disc length: 4002 seconds
#
# Revision: 1
# Processed by: cddbd v1.5.1PL0 Copyright (c) Steve Scherf et al.
# Submitted via: CDex 1.50Beta5
#
DISCID=b70fa00e
DTITLE=郷ひろみ - 恋のハレルヤ大作戦〜Mission Code is “G”〜
DYEAR=2000
DGENRE=Pop
TTITLE0=Go’s Theme,Mission Code is “G”
TTITLE1=Hallelujah,Burning Love〜Album Version〜
TTITLE2=愛のためにサヨナラ
TTITLE3=男が恋に出逢うとき
TTITLE4=見つめてほしい
TTITLE5=きみに、ありがとう
TTITLE6=NO MORE FEARS
TTITLE7=初愛
TTITLE8=ごめんねって言いたかった
TTITLE9=GOLDFINGER’99〜Single Version〜
TTITLE10=GOLDFINGER’99〜ESCAPE A GO GO MIX〜
TTITLE11=Hallelujah,Burning Love〜S.O.N.Y Remix〜
TTITLE12=Hallelujah,Burning Love〜Go to Mothership Mix〜
TTITLE13=Go’s Theme,Reprise
EXTD=
EXTT0=
EXTT1=
EXTT2=
EXTT3=
EXTT4=
EXTT5=
EXTT6=
EXTT7=
EXTT8=
EXTT9=
EXTT10=
EXTT11=
EXTT12=
EXTT13=
PLAYORDER=
